PathFileType	4	(X/Y/Z)	./resultDataOpenSim/trcMotMarkerGrf/sub06/qtm-02-05.trc
DataRate	CameraRate	NumFrames	NumMarkers	Units	OrigDataRate	OrigDataStartFrame	OrigNumFrames
250.000000	250.000000	7	24	m	250.000000	303	484
Frame#	Time	L.Toe.Tip			R.Toe.Tip			L.Ankle.Lat			R.Ankle.Lat			L.Ankle.Med			R.Ankle.Med			L.Heel			R.Heel			L.Knee.Lat			R.Knee.Lat			L.Knee.Med			R.Knee.Med			L.Thigh.Upper			R.Thigh.Upper			L.ASIS			R.ASIS			V.Sacral			L.Acromium			R.Acromium			C7			L.Elbow			R.Elbow			L.Wrist.Lat			R.Wrist.Lat
		X1	Y1	Z1	X2	Y2	Z2	X3	Y3	Z3	X4	Y4	Z4	X5	Y5	Z5	X6	Y6	Z6	X7	Y7	Z7	X8	Y8	Z8	X9	Y9	Z9	X10	Y10	Z10	X11	Y11	Z11	X12	Y12	Z12	X13	Y13	Z13	X14	Y14	Z14	X15	Y15	Z15	X16	Y16	Z16	X17	Y17	Z17	X18	Y18	Z18	X19	Y19	Z19	X20	Y20	Z20	X21	Y21	Z21	X22	Y22	Z22	X23	Y23	Z23	X24	Y24	Z24

303	1.208	0.30414304	0.083865776	-0.073236257	0.82584035	0.035152716	0.07860736	0.30313105	0.21364906	-0.10645195	0.6897781	0.059729385	0.11067533	0.32432391	0.22083991	-0.024456477	0.70493951	0.082925825	0.023077477	0.25587687	0.26939348	-0.056824661	0.63224825	0.039112138	0.055288831	0.63426675	0.39453321	-0.13584998	0.74510072	0.44546835	0.14073185	0.63859537	0.38346035	-0.01523237	0.70200851	0.43480177	0.019066635	0.58082795	0.78696957	-0.13291384	0.63724287	0.80537772	0.20614195	0.6619725	0.84127415	-0.10360071	0.71064844	0.85919977	0.1369575	0.50032615	0.91758201	0.05422249	0.60604198	1.3330295	-0.14687326	0.61553088	1.3118604	0.21554056	0.53532707	1.3616609	0.036046688	0.60133559	1.0093215	-0.20197741	0.52466961	1.0096272	0.2769134	0.81067224	0.86650141	-0.18922514	0.64572858	0.80335551	0.3223199
304	1.212	0.31946845	0.085300617	-0.073607925	0.82579822	0.035163073	0.078686695	0.31676461	0.21500104	-0.10658733	0.6897465	0.059685236	0.1107648	0.33786875	0.22232346	-0.024601211	0.70500363	0.083055434	0.023223852	0.26858887	0.27022741	-0.056832518	0.63222648	0.039242923	0.05537343	0.64677421	0.39702334	-0.13615028	0.74676088	0.44555685	0.14114026	0.65139525	0.38577345	-0.015368221	0.70356808	0.43515371	0.019447142	0.58764537	0.78909377	-0.13253563	0.64230588	0.80616306	0.20681812	0.66828764	0.84321769	-0.10330384	0.71626587	0.86042004	0.13798198	0.50642923	0.91912722	0.054593512	0.61136021	1.3348162	-0.14675399	0.62178856	1.3137394	0.21550578	0.54123885	1.3632349	0.036272096	0.60626811	1.0110579	-0.20229201	0.53298389	1.0109248	0.27783947	0.81288514	0.86596929	-0.1901338	0.65704282	0.80613596	0.32232574
305	1.216	0.33497201	0.086540612	-0.074025765	0.82577053	0.035173355	0.078757154	0.3304743	0.21613675	-0.10671929	0.68969106	0.059674743	0.11086651	0.35141742	0.22362409	-0.024693255	0.70507241	0.083193724	0.023366359	0.28142756	0.27076539	-0.056792853	0.63221827	0.039378445	0.05546121	0.65923762	0.39961907	-0.13646822	0.74839579	0.44564852	0.14157133	0.66418865	0.38812026	-0.015476218	0.70506829	0.43552659	0.019776926	0.59434039	0.79119816	-0.13192803	0.64742994	0.80696361	0.20751426	0.67487414	0.84519364	-0.10275668	0.72186674	0.86166283	0.139027	0.5125409	0.92062318	0.054963069	0.61669911	1.3365725	-0.14662308	0.62804099	1.3156157	0.215463	0.54714151	1.3647985	0.036508338	0.61129022	1.0127557	-0.20270791	0.54122008	1.0122289	0.27870322	0.81503386	0.86548976	-0.19107378	0.66835283	0.80900491	0.32230418
306	1.22	0.35062913	0.087586862	-0.074489453	0.82575253	0.035183233	0.078818693	0.3442168	0.21708347	-0.10683325	0.68957986	0.059709225	0.11099415	0.36502934	0.22472046	-0.024781172	0.70514416	0.083341009	0.023493921	0.2943819	0.2710361	-0.056774699	0.63221398	0.039517499	0.055556174	0.67165744	0.40230102	-0.13675662	0.75005629	0.44570753	0.14204305	0.67694789	0.39050904	-0.015550693	0.70674343	0.43588324	0.019981993	0.60105397	0.79327302	-0.13129574	0.6524609	0.80774513	0.20811986	0.68172817	0.84718621	-0.10204939	0.7274517	0.86293313	0.1400728	0.51866836	0.92207993	0.055300872	0.62205939	1.3382966	-0.14648484	0.63428696	1.3174817	0.21541005	0.5530589	1.3663233	0.036740592	0.61632216	1.0144331	-0.20316502	0.5494573	1.0135423	0.27953752	0.81712987	0.86505194	-0.19204285	0.67963732	0.81195163	0.32225032
307	1.224	0.36641615	0.088441087	-0.075001697	0.82573616	0.035193855	0.078867866	0.35797393	0.21784103	-0.1069272	0.68942874	0.059783317	0.1111359	0.37875189	0.22557862	-0.02489866	0.70521587	0.083498072	0.023598317	0.30739094	0.27110245	-0.056864068	0.63219867	0.039664998	0.05567332	0.6840115	0.40504227	-0.13696579	0.75172846	0.445722	0.14249381	0.68962911	0.39295161	-0.015581266	0.7085698	0.43621981	0.020080641	0.60793904	0.79532259	-0.13079797	0.65729232	0.80847128	0.20857045	0.68863009	0.84915885	-0.10134786	0.73301153	0.86422718	0.14109467	0.52476825	0.9235109	0.055610907	0.62743864	1.3399948	-0.14633815	0.64052546	1.3193296	0.21534575	0.55899664	1.3678006	0.036960105	0.62127963	1.0161096	-0.20359938	0.55771352	1.0148656	0.28037339	0.81917292	0.86464882	-0.1930365	0.69090719	0.81497051	0.32216895
308	1.228	0.38233333	0.089109335	-0.075575496	0.82571545	0.035205999	0.078899821	0.37176283	0.21839017	-0.10700848	0.68929834	0.05987132	0.1112579	0.39260227	0.22617986	-0.025057929	0.70528122	0.083667696	0.023686672	0.32041902	0.27096819	-0.057063815	0.63215898	0.039825521	0.055827737	0.69629294	0.40782682	-0.13708829	0.75333322	0.44569623	0.14284721	0.7021528	0.39546328	-0.015544293	0.71033543	0.43654597	0.020165341	0.61503079	0.79735105	-0.13039904	0.66197541	0.80913817	0.20890777	0.6954134	0.85108833	-0.1007363	0.73854183	0.86553888	0.14208229	0.53081718	0.92491238	0.055894994	0.63283718	1.3416675	-0.14617769	0.64675643	1.3211526	0.21527317	0.56493412	1.3692439	0.037176331	0.62607336	1.0178067	-0.20394322	0.56593872	1.0161912	0.281227	0.8211612	0.86427901	-0.19405139	0.70217686	0.81805782	0.32206668
309	1.232	0.39838789	0.089603601	-0.076216919	0.82568967	0.035218811	0.078913484	0.38561589	0.21871578	-0.1070871	0.68923059	0.05994511	0.11133826	0.40659465	0.22652387	-0.025252217	0.70533327	0.08385233	0.023778018	0.33347772	0.27056358	-0.057259205	0.63209649	0.039997355	0.056008095	0.70850075	0.41064706	-0.13714008	0.75484755	0.44564352	0.14311741	0.71444449	0.39805173	-0.015412686	0.71193377	0.43685087	0.02032342	0.62223544	0.79933842	-0.12998888	0.66664659	0.80976917	0.20921958	0.7020847	0.85297165	-0.10018753	0.74405153	0.86686347	0.14304184	0.53680236	0.92626778	0.056159227	0.63825875	1.3433042	-0.14600111	0.65298256	1.3229437	0.21519886	0.57085642	1.3706561	0.037398399	0.63061832	1.0195429	-0.20413384	0.57408499	1.0175088	0.28210039	0.82310299	0.86393804	-0.19508316	0.71344178	0.82120459	0.32194295
